<svg width="78" height="63" viewBox="0 0 78 63" fill="none" xmlns="http://www.w3.org/2000/svg">
<g clip-path="url(#clip0_1_2291)">
<path d="M31.0818 32.1952C31.8435 32.9643 33.0781 32.9643 33.8398 32.1952L35.2182 30.8036C35.9799 30.0345 35.9799 28.788 35.2182 28.019L30.8648 23.625L35.217 19.2298C35.9787 18.4607 35.9787 17.2143 35.217 16.4452L33.8386 15.0536C33.0769 14.2845 31.8423 14.2845 31.0806 15.0536L23.9704 22.2321C23.2087 23.0012 23.2087 24.2476 23.9704 25.0167L31.0818 32.1952ZM42.783 30.8048L44.1614 32.1964C44.9231 32.9655 46.1577 32.9655 46.9194 32.1964L54.0296 25.0179C54.7913 24.2488 54.7913 23.0024 54.0296 22.2333L46.9194 15.0548C46.1577 14.2857 44.9231 14.2857 44.1614 15.0548L42.783 16.4464C42.0213 17.2155 42.0213 18.462 42.783 19.231L47.1352 23.625L42.783 28.0202C42.0213 28.7893 42.0213 30.0357 42.783 30.8048ZM76.05 51.1875H46.5002C46.41 53.6251 44.7074 55.125 42.51 55.125H35.1C32.8222 55.125 31.0757 52.9754 31.1062 51.1875H1.95C0.8775 51.1875 0 52.0734 0 53.1562V55.125C0 59.4562 3.51 63 7.8 63H70.2C74.49 63 78 59.4562 78 55.125V53.1562C78 52.0734 77.1225 51.1875 76.05 51.1875ZM70.2 5.90625C70.2 2.65781 67.5675 0 64.35 0H13.65C10.4325 0 7.8 2.65781 7.8 5.90625V47.25H70.2V5.90625ZM62.4 39.375H15.6V7.875H62.4V39.375Z" fill="url(#paint0_linear_1_2291)"/>
</g>
<defs>
<linearGradient id="paint0_linear_1_2291" x1="60.5" y1="5.78093e-07" x2="34" y2="91.5" gradientUnits="userSpaceOnUse">
<stop stop-color="#8BC34A"/>
<stop offset="1" stop-color="#0DFFE2"/>
</linearGradient>
<clipPath id="clip0_1_2291">
<rect width="78" height="63" fill="white"/>
</clipPath>
</defs>
</svg>
