<svg width="77" height="77" viewBox="0 0 77 77" fill="none" xmlns="http://www.w3.org/2000/svg">
<path d="M1.86671 22.2616L36.8984 38.1532C37.921 38.6179 39.0775 38.6179 40.1001 38.1532L75.1318 22.2616C77.6207 21.1322 77.6207 17.371 75.1318 16.2416L40.1016 0.34852C39.5992 0.118863 39.0532 0 38.5008 0C37.9483 0 37.4023 0.118863 36.8999 0.34852L1.86671 16.2401C-0.622235 17.3695 -0.622235 21.1322 1.86671 22.2616ZM75.1333 35.5379L66.3972 31.5782L42.0883 42.5971C40.9513 43.113 39.7437 43.3747 38.5 43.3747C37.2563 43.3747 36.0502 43.113 34.9117 42.5971L10.6043 31.5782L1.86671 35.5379C-0.622235 36.6658 -0.622235 40.4255 1.86671 41.5534L36.8984 57.433C37.921 57.8962 39.0775 57.8962 40.1001 57.433L75.1333 41.5534C77.6222 40.4255 77.6222 36.6658 75.1333 35.5379ZM75.1333 54.7576L66.4303 50.8129L42.0883 61.8469C40.9513 62.3627 39.7437 62.6244 38.5 62.6244C37.2563 62.6244 36.0502 62.3627 34.9117 61.8469L10.5712 50.8129L1.86671 54.7576C-0.622235 55.8855 -0.622235 59.6452 1.86671 60.7731L36.8984 76.6526C37.921 77.1158 39.0775 77.1158 40.1001 76.6526L75.1333 60.7731C77.6222 59.6452 77.6222 55.8855 75.1333 54.7576Z" fill="url(#paint0_linear_1_2287)"/>
<defs>
<linearGradient id="paint0_linear_1_2287" x1="59.7244" y1="7.06558e-07" x2="21.212" y2="107.404" gradientUnits="userSpaceOnUse">
<stop stop-color="#8BC34A"/>
<stop offset="1" stop-color="#0DFFE2"/>
</linearGradient>
</defs>
</svg>
