<svg width="1028" height="779" viewBox="0 0 1028 779" fill="none" xmlns="http://www.w3.org/2000/svg">
<path d="M997.286 261.914L997.29 261.911C1004.6 256.093 1015.5 261.535 1015.5 270.745V672.156C1015.5 723.897 973.563 765.875 921.875 765.875H106.125C54.4368 765.875 12.5 723.897 12.5 672.156V270.941C12.5 261.546 23.1971 256.279 30.7146 262.111C74.6471 296.271 132.894 339.656 332.908 485.105C339.162 489.674 346.076 495.015 353.549 500.786C370.746 514.069 390.897 529.633 412.746 543.324C444.096 562.967 479.05 578.83 513.999 578.634C549.146 578.929 584.542 562.771 616.088 542.955C638.021 529.178 658.147 513.594 675.052 500.504C682.455 494.772 689.24 489.519 695.289 485.105C895.304 339.655 953.354 296.074 997.286 261.914ZM514.009 514.625L514 514.625L513.991 514.625C502.719 514.82 490.171 511.365 477.151 505.668C464.135 499.974 450.681 492.053 437.604 483.352C420.405 471.906 403.909 459.145 389.931 448.332C382.636 442.688 376.026 437.575 370.361 433.457L370.067 433.861L370.361 433.457C129.189 258.265 94.5324 231.116 42.9846 190.735C38.915 187.547 34.7401 184.277 30.35 180.844C19.0946 171.908 12.5 158.508 12.5 144.139V106.844C12.5 55.1028 54.4368 13.125 106.125 13.125H921.875C973.563 13.125 1015.5 55.1028 1015.5 106.844V144.139C1015.5 158.512 1008.9 172.105 997.653 180.842L997.651 180.844C994.285 183.486 991.046 186.032 987.885 188.517C934.675 230.34 903.258 255.035 657.639 433.457L657.933 433.861L657.639 433.457C651.974 437.575 645.364 442.688 638.069 448.332C624.091 459.145 607.595 471.906 590.396 483.352C577.319 492.053 563.865 499.974 550.849 505.668C537.829 511.365 525.281 514.82 514.009 514.625Z" fill="#84CC16" stroke="#84CC16"/>
</svg>
