<svg width="961" height="961" viewBox="0 0 961 961" fill="none" xmlns="http://www.w3.org/2000/svg">
<circle cx="480.373" cy="480.373" r="480.373" fill="#021032"/>
<g clip-path="url(#clip0_1_3423)">
<path d="M500.399 420.326H590.469L580.461 460.357H500.399V640.497H460.368V460.357H380.306V420.326H460.368V382.856C460.368 347.169 464.091 334.219 471.056 321.169C477.882 308.275 488.426 297.731 501.32 290.905C514.37 283.94 527.32 280.217 563.008 280.217C573.456 280.217 582.623 281.218 590.469 283.219V320.248H563.008C536.507 320.248 528.441 321.809 520.214 326.212C514.13 329.455 509.606 333.978 506.364 340.063C501.96 348.29 500.399 356.356 500.399 382.856V420.326Z" fill="white"/>
</g>
<defs>
<clipPath id="clip0_1_3423">
<rect width="480.373" height="480.373" fill="white" transform="translate(240.192 240.185)"/>
</clipPath>
</defs>
</svg>
