<svg width="962" height="961" viewBox="0 0 962 961" fill="none" xmlns="http://www.w3.org/2000/svg">
<circle cx="480.865" cy="480.373" r="480.373" fill="#021032"/>
<g clip-path="url(#clip0_1_3416)">
<path d="M577.025 405.828C588.964 405.828 598.642 396.15 598.642 384.212C598.642 372.273 588.964 362.595 577.025 362.595C565.086 362.595 555.408 372.273 555.408 384.212C555.408 396.15 565.086 405.828 577.025 405.828Z" fill="white"/>
<path d="M480.866 387.864C462.57 387.864 444.686 393.289 429.473 403.454C414.261 413.619 402.404 428.066 395.403 444.969C388.401 461.872 386.57 480.472 390.139 498.416C393.708 516.36 402.518 532.843 415.455 545.78C428.392 558.717 444.875 567.527 462.819 571.096C480.764 574.666 499.363 572.834 516.266 565.832C533.169 558.831 547.617 546.974 557.781 531.762C567.946 516.55 573.371 498.665 573.371 480.369C573.371 455.835 563.625 432.306 546.277 414.958C528.929 397.61 505.4 387.864 480.866 387.864ZM480.866 540.416C468.99 540.416 457.381 536.894 447.506 530.296C437.631 523.698 429.935 514.32 425.39 503.348C420.846 492.376 419.656 480.302 421.973 468.654C424.29 457.007 430.009 446.307 438.407 437.91C446.804 429.512 457.504 423.793 469.152 421.476C480.8 419.159 492.873 420.348 503.845 424.893C514.817 429.438 524.195 437.134 530.793 447.009C537.391 456.883 540.913 468.493 540.913 480.369C540.913 496.294 534.586 511.567 523.326 522.828C512.065 534.089 496.792 540.416 480.866 540.416Z" fill="white"/>
<path d="M480.871 332.691C528.97 332.691 534.669 332.874 553.663 333.741C565.086 333.877 576.401 335.975 587.113 339.944C594.882 342.942 601.937 347.532 607.825 353.42C613.713 359.308 618.303 366.363 621.301 374.132C625.27 384.844 627.368 396.159 627.504 407.582C628.37 426.576 628.555 432.275 628.555 480.374C628.555 528.473 628.371 534.171 627.504 553.165C627.368 564.588 625.27 575.903 621.301 586.616C618.303 594.384 613.713 601.439 607.825 607.327C601.937 613.215 594.882 617.806 587.113 620.803C576.401 624.772 565.086 626.87 553.663 627.006C534.67 627.872 528.975 628.057 480.871 628.057C432.768 628.057 427.073 627.874 408.08 627.006C396.657 626.87 385.342 624.772 374.629 620.803C366.861 617.806 359.806 613.215 353.918 607.327C348.03 601.439 343.439 594.384 340.442 586.616C336.473 575.903 334.375 564.588 334.239 553.165C333.373 534.171 333.188 528.473 333.188 480.374C333.188 432.275 333.371 426.576 334.239 407.582C334.375 396.159 336.473 384.844 340.442 374.132C343.439 366.363 348.03 359.307 353.917 353.419C359.805 347.531 366.861 342.94 374.629 339.943C385.342 335.974 396.657 333.876 408.08 333.74C427.074 332.874 432.773 332.689 480.871 332.689V332.691ZM480.871 300.232C431.948 300.232 425.813 300.439 406.6 301.316C391.658 301.616 376.875 304.447 362.88 309.69C350.911 314.318 340.042 321.396 330.969 330.469C321.895 339.543 314.817 350.412 310.189 362.381C304.946 376.378 302.114 391.164 301.815 406.108C300.939 425.314 300.731 431.449 300.731 480.372C300.731 529.295 300.939 535.431 301.815 554.644C302.115 569.588 304.946 584.374 310.189 598.371C314.817 610.34 321.895 621.209 330.969 630.283C340.042 639.356 350.911 646.434 362.88 651.062C376.877 656.305 391.663 659.137 406.607 659.436C425.813 660.305 431.948 660.512 480.871 660.512C529.794 660.512 535.93 660.305 555.143 659.428C570.087 659.129 584.873 656.298 598.871 651.055C610.839 646.427 621.708 639.349 630.782 630.275C639.855 621.202 646.933 610.332 651.561 598.364C656.804 584.366 659.636 569.581 659.935 554.636C660.804 535.431 661.011 529.295 661.011 480.372C661.011 431.449 660.804 425.314 659.927 406.101C659.627 391.159 656.796 376.376 651.554 362.381C646.925 350.414 639.847 339.546 630.773 330.474C621.699 321.401 610.831 314.325 598.863 309.697C584.865 304.454 570.08 301.623 555.136 301.324C535.93 300.439 529.794 300.232 480.871 300.232Z" fill="white"/>
</g>
<defs>
<clipPath id="clip0_1_3416">
<rect width="480.373" height="480.373" fill="white" transform="translate(240.684 240.185)"/>
</clipPath>
</defs>
</svg>
