<svg width="64" height="64" viewBox="0 0 64 64" fill="none" xmlns="http://www.w3.org/2000/svg">
<path d="M26.0001 59H20.0001C19.7349 59 19.4805 58.8946 19.293 58.7071C19.1054 58.5196 19.0001 58.2652 19.0001 58H4.32007L4.55007 59.32C4.61895 59.5175 4.74722 59.6888 4.91729 59.8106C5.08737 59.9323 5.29092 59.9985 5.50007 60H40.5001C40.7092 59.9985 40.9128 59.9323 41.0828 59.8106C41.2529 59.6888 41.3812 59.5175 41.4501 59.32L41.6801 58H27.0001C27.0001 58.2652 26.8947 58.5196 26.7072 58.7071C26.5196 58.8946 26.2653 59 26.0001 59Z" fill="url(#paint0_linear_1_2305)"/>
<path d="M7 36C6.81504 35.9992 6.63357 36.0503 6.47622 36.1475C6.31888 36.2448 6.192 36.3842 6.11 36.55C6.04073 36.6901 6.00317 36.8438 6 37V56H20C20.2652 56 20.5196 56.1054 20.7071 56.2929C20.8946 56.4804 21 56.7348 21 57H25C25 56.7348 25.1054 56.4804 25.2929 56.2929C25.4804 56.1054 25.7348 56 26 56H40V44H39C38.7767 43.9998 38.5598 43.9249 38.384 43.7872C38.2082 43.6494 38.0836 43.4568 38.03 43.24L37.86 42.57L37.27 42.93C37.079 43.0444 36.8552 43.0918 36.6342 43.0646C36.4132 43.0374 36.2076 42.9373 36.05 42.78L33.22 39.95C33.0627 39.7924 32.9626 39.5868 32.9354 39.3658C32.9082 39.1448 32.9556 38.921 33.07 38.73L33.43 38.14L32.76 37.97C32.5432 37.9164 32.3506 37.7918 32.2128 37.616C32.0751 37.4402 32.0002 37.2233 32 37V36H7ZM20 47H18V45H20V47ZM24 47H22V45H24V47ZM28 47H26V45H28V47Z" fill="url(#paint1_linear_1_2305)"/>
<path d="M41 37C42.1046 37 43 36.1046 43 35C43 33.8954 42.1046 33 41 33C39.8954 33 39 33.8954 39 35C39 36.1046 39.8954 37 41 37Z" fill="url(#paint2_linear_1_2305)"/>
<path d="M8 21.9999H19.54C20.1014 21.3722 20.7887 20.8698 21.5571 20.5252C22.3255 20.1806 23.1579 20.0016 24 19.9999H25.04C25.294 17.2678 26.5581 14.7287 28.5851 12.8792C30.612 11.0298 33.2561 10.0031 36 9.99994C36.3 9.99994 36.6 10.0199 36.9 10.0499C36.7294 9.16208 36.3209 8.33722 35.7181 7.66342C35.1153 6.98962 34.3408 6.49218 33.4773 6.2242C32.6138 5.95623 31.6938 5.92778 30.8154 6.1419C29.937 6.35602 29.1333 6.80467 28.49 7.43994C28.3919 7.53755 28.2745 7.61373 28.1454 7.66365C28.0163 7.71356 27.8783 7.73614 27.74 7.72994C27.5994 7.72195 27.4619 7.68496 27.3363 7.62128C27.2107 7.55761 27.0996 7.46863 27.01 7.35994C25.8421 5.90955 24.2532 4.85711 22.4621 4.3477C20.671 3.8383 18.7659 3.897 17.0096 4.51572C15.2533 5.13444 13.7321 6.28272 12.6558 7.80226C11.5794 9.32181 11.0009 11.1378 11 12.9999C11 13.2652 10.8946 13.5195 10.7071 13.707C10.5196 13.8946 10.2652 13.9999 10 13.9999H8C6.93913 13.9999 5.92172 14.4214 5.17157 15.1715C4.42143 15.9217 4 16.9391 4 17.9999C4 19.0608 4.42143 20.0782 5.17157 20.8284C5.92172 21.5785 6.93913 21.9999 8 21.9999Z" fill="url(#paint3_linear_1_2305)"/>
<path d="M56 21.9999H53.65C53.4901 21.9985 53.3327 21.9599 53.1903 21.8869C53.048 21.814 52.9246 21.7089 52.83 21.5799C52.7398 21.4484 52.682 21.2974 52.6611 21.1393C52.6403 20.9812 52.657 20.8204 52.71 20.6699C52.8974 20.1329 52.9953 19.5687 53 18.9999C52.9998 18.0142 52.7083 17.0505 52.162 16.2299C51.6157 15.4094 50.839 14.7686 49.9296 14.3882C49.0202 14.0077 48.0187 13.9046 47.0508 14.0917C46.083 14.2789 45.192 14.7479 44.49 15.4399C44.3919 15.5376 44.2745 15.6137 44.1454 15.6636C44.0163 15.7136 43.8783 15.7361 43.74 15.7299C43.5994 15.722 43.4619 15.685 43.3363 15.6213C43.2107 15.5576 43.0996 15.4686 43.01 15.3599C41.8421 13.9095 40.2532 12.8571 38.4621 12.3477C36.671 11.8383 34.7659 11.897 33.0096 12.5157C31.2533 13.1344 29.7321 14.2827 28.6558 15.8023C27.5794 17.3218 27.0009 19.1378 27 20.9999C27 21.2652 26.8946 21.5195 26.7071 21.707C26.5196 21.8946 26.2652 21.9999 26 21.9999H24C22.9391 21.9999 21.9217 22.4214 21.1716 23.1715C20.4214 23.9217 20 24.9391 20 25.9999C20 27.0608 20.4214 28.0782 21.1716 28.8284C21.9217 29.5785 22.9391 29.9999 24 29.9999H33.27L36.05 27.2199C36.2076 27.0627 36.4132 26.9625 36.6342 26.9354C36.8552 26.9082 37.079 26.9555 37.27 27.0699L37.86 27.4299L38.03 26.7599C38.0836 26.5431 38.2082 26.3505 38.384 26.2128C38.5598 26.075 38.7767 26.0001 39 25.9999H43C43.2233 26.0001 43.4402 26.075 43.616 26.2128C43.7918 26.3505 43.9164 26.5431 43.97 26.7599L44.14 27.4299L44.73 27.0699C44.921 26.9555 45.1448 26.9082 45.3658 26.9354C45.5868 26.9625 45.7924 27.0627 45.95 27.2199L48.73 29.9999H56C57.0609 29.9999 58.0783 29.5785 58.8284 28.8284C59.5786 28.0782 60 27.0608 60 25.9999C60 24.9391 59.5786 23.9217 58.8284 23.1715C58.0783 22.4214 57.0609 21.9999 56 21.9999Z" fill="url(#paint4_linear_1_2305)"/>
<path d="M45.09 40.81L46.81 39.09L46.16 38.01C46.0816 37.8747 46.0354 37.7231 46.025 37.567C46.0146 37.4109 46.0403 37.2546 46.1 37.11C46.1598 36.9656 46.2524 36.8372 46.3704 36.7348C46.4884 36.6324 46.6286 36.5588 46.78 36.52L48 36.22V33.78L46.78 33.48C46.6286 33.4412 46.4884 33.3676 46.3704 33.2652C46.2524 33.1628 46.1598 33.0344 46.1 32.89C46.0403 32.7454 46.0146 32.5891 46.025 32.433C46.0354 32.2769 46.0816 32.1253 46.16 31.99L46.81 30.91L45.09 29.19L44.01 29.83C43.8763 29.9123 43.7249 29.9615 43.5685 29.9737C43.412 29.9858 43.2548 29.9606 43.11 29.9C42.9656 29.8402 42.8372 29.7476 42.7348 29.6296C42.6324 29.5116 42.5588 29.3713 42.52 29.22L42.22 28H39.78L39.48 29.22C39.4412 29.3713 39.3676 29.5116 39.2652 29.6296C39.1628 29.7476 39.0344 29.8402 38.89 29.9C38.7452 29.9606 38.588 29.9858 38.4315 29.9737C38.2751 29.9615 38.1237 29.9123 37.99 29.83L36.91 29.19L35.19 30.91L35.84 31.99C35.9184 32.1253 35.9646 32.2769 35.975 32.433C35.9854 32.5891 35.9597 32.7454 35.9 32.89C35.8402 33.0344 35.7476 33.1628 35.6296 33.2652C35.5116 33.3676 35.3714 33.4412 35.22 33.48L34 33.78V36.22L35.22 36.52C35.3714 36.5588 35.5116 36.6324 35.6296 36.7348C35.7476 36.8372 35.8402 36.9656 35.9 37.11C35.9597 37.2546 35.9854 37.4109 35.975 37.567C35.9646 37.7231 35.9184 37.8747 35.84 38.01L35.19 39.09L36.91 40.81L37.99 40.16C38.1253 40.0816 38.2769 40.0354 38.433 40.025C38.5891 40.0146 38.7454 40.0403 38.89 40.1C39.0344 40.1598 39.1628 40.2524 39.2652 40.3704C39.3676 40.4884 39.4412 40.6286 39.48 40.78L39.78 42H42.22L42.52 40.78C42.5588 40.6286 42.6324 40.4884 42.7348 40.3704C42.8372 40.2524 42.9656 40.1598 43.11 40.1C43.2546 40.0403 43.4109 40.0146 43.567 40.025C43.7231 40.0354 43.8747 40.0816 44.01 40.16L45.09 40.81ZM41 39C40.2089 39 39.4355 38.7654 38.7777 38.3259C38.1199 37.8864 37.6072 37.2616 37.3045 36.5307C37.0017 35.7998 36.9225 34.9956 37.0769 34.2196C37.2312 33.4437 37.6122 32.731 38.1716 32.1716C38.731 31.6122 39.4437 31.2312 40.2196 31.0769C40.9956 30.9225 41.7998 31.0017 42.5307 31.3045C43.2616 31.6072 43.8864 32.1199 44.3259 32.7777C44.7654 33.4355 45 34.2089 45 35C45 36.0609 44.5786 37.0783 43.8284 37.8284C43.0783 38.5786 42.0609 39 41 39Z" fill="url(#paint5_linear_1_2305)"/>
<path d="M55 46C55 46.7956 54.6839 47.5587 54.1213 48.1213C53.5587 48.6839 52.7956 49 52 49H44V51H52C53.3256 50.9984 54.5964 50.4711 55.5338 49.5338C56.4711 48.5964 56.9984 47.3256 57 46V34H55V46Z" fill="url(#paint6_linear_1_2305)"/>
<defs>
<linearGradient id="paint0_linear_1_2305" x1="33.298" y1="58" x2="33.2376" y2="61.1472" gradientUnits="userSpaceOnUse">
<stop stop-color="#8BC34A"/>
<stop offset="1" stop-color="#0DFFE2"/>
</linearGradient>
<linearGradient id="paint1_linear_1_2305" x1="32.3718" y1="36" x2="25.3926" y2="67.5126" gradientUnits="userSpaceOnUse">
<stop stop-color="#8BC34A"/>
<stop offset="1" stop-color="#0DFFE2"/>
</linearGradient>
<linearGradient id="paint2_linear_1_2305" x1="42.1026" y1="33" x2="40.1019" y2="38.5794" gradientUnits="userSpaceOnUse">
<stop stop-color="#8BC34A"/>
<stop offset="1" stop-color="#0DFFE2"/>
</linearGradient>
<linearGradient id="paint3_linear_1_2305" x1="29.5186" y1="4.00439" x2="24.1683" y2="31.2837" gradientUnits="userSpaceOnUse">
<stop stop-color="#8BC34A"/>
<stop offset="1" stop-color="#0DFFE2"/>
</linearGradient>
<linearGradient id="paint4_linear_1_2305" x1="51.0256" y1="12.0044" x2="46.5716" y2="39.6145" gradientUnits="userSpaceOnUse">
<stop stop-color="#8BC34A"/>
<stop offset="1" stop-color="#0DFFE2"/>
</linearGradient>
<linearGradient id="paint5_linear_1_2305" x1="44.859" y1="28" x2="37.8567" y2="47.528" gradientUnits="userSpaceOnUse">
<stop stop-color="#8BC34A"/>
<stop offset="1" stop-color="#0DFFE2"/>
</linearGradient>
<linearGradient id="paint6_linear_1_2305" x1="54.0833" y1="34" x2="43.7965" y2="55.9379" gradientUnits="userSpaceOnUse">
<stop stop-color="#8BC34A"/>
<stop offset="1" stop-color="#0DFFE2"/>
</linearGradient>
</defs>
</svg>
