<svg width="960" height="960" viewBox="0 0 960 960" fill="none" xmlns="http://www.w3.org/2000/svg">
<path d="M662.248 516.248L644.028 534.36C644.028 534.36 600.724 577.42 482.524 459.888C364.325 342.36 407.628 299.303 407.628 299.303L419.1 287.895C447.364 259.794 450.028 214.676 425.368 181.739L374.93 114.363C344.411 73.5969 285.438 68.2117 250.458 102.993L187.674 165.421C170.329 182.667 158.706 205.024 160.116 229.825C163.722 293.273 192.428 429.788 352.614 589.064C522.484 757.968 681.872 764.68 747.052 758.604C767.668 756.684 785.596 746.184 800.044 731.816L856.868 675.32C895.224 637.18 884.408 571.796 835.332 545.12L758.912 503.576C726.688 486.06 687.432 491.204 662.248 516.248Z" fill="#84CC16"/>
</svg>
