<svg width="587" height="1027" viewBox="0 0 587 1027" fill="none" xmlns="http://www.w3.org/2000/svg">
<path d="M231.444 633.481C251.595 637.181 272.286 639.375 293.5 639.375C314.714 639.375 335.406 637.181 355.556 633.481V939.682L312.613 1004.24C303.525 1017.89 283.494 1017.89 274.407 1004.24L231.444 939.682V633.481ZM12.5 294.094C12.5 138.571 138.307 12.5 293.5 12.5C448.693 12.5 574.5 138.571 574.5 294.094C574.5 449.617 448.693 575.687 293.5 575.687C138.307 575.687 12.5 449.617 12.5 294.094ZM161.069 294.094C161.069 220.907 220.47 161.383 293.5 161.383C306.718 161.383 317.458 150.619 317.458 137.375C317.458 124.131 306.718 113.367 293.5 113.367C194.072 113.367 113.153 194.439 113.153 294.094C113.153 307.337 123.893 318.102 137.111 318.102C150.329 318.102 161.069 307.337 161.069 294.094Z" fill="#84CC16" stroke="#84CC16"/>
</svg>
