<svg width="178" height="60" viewBox="0 0 178 60" fill="none" xmlns="http://www.w3.org/2000/svg">
<path d="M123.782 11.4167C123.637 12.9654 123.169 14.3699 122.557 15.7025C121.477 18.1514 120.036 20.3483 118.415 22.4372C115.606 26.0386 115.606 31.3687 118.379 35.0062C121.981 39.7601 128.427 40.6965 133.253 37.131C137.791 33.7817 138.8 27.011 135.378 22.5452C133.469 20.0242 131.885 17.3591 130.876 14.3699C130.552 13.4336 130.372 12.4612 130.084 11.4888C136.134 12.3171 143.589 17.9354 144.418 27.1911C145.282 36.8789 138.187 45.3783 128.535 46.2787C118.884 47.2151 110.312 40.1563 109.34 30.5404C108.331 20.7805 115.318 12.8213 123.782 11.4167Z" fill="#84CC16"/>
<path d="M131.056 32.9174C128.896 35.0782 125.438 35.2583 123.097 33.3135C120.756 31.3327 120.216 27.9114 121.981 25.4624C124.79 21.5008 126.086 17.071 126.375 12.3171C126.483 10.4084 126.303 8.4996 125.474 6.69887C125.258 6.23069 124.97 5.7625 124.682 5.33032C123.818 4.14185 123.89 2.59323 124.934 1.58482C125.978 0.576418 127.527 0.504389 128.679 1.40475C129.76 2.2691 130.048 3.96177 129.22 5.11424C128.067 6.69887 127.527 8.49959 127.455 10.4084C127.239 15.4504 128.499 20.1322 131.092 24.454C131.381 24.9222 131.741 25.3543 132.029 25.8225C133.325 28.1635 132.929 31.0086 131.056 32.9174Z" fill="#84CC16"/>
<path d="M26.7587 31.0444V39.1476C26.7587 43.1452 23.5174 46.3865 19.5198 46.3865H16.7467V30.9363L0 3.09717H6.55463C9.11165 3.09717 11.4526 4.4297 12.7491 6.59057L22.2209 22.3289L31.6927 6.59057C32.9892 4.4297 35.3662 3.09717 37.8872 3.09717H43.6135L26.7587 31.0444Z" fill="#111111"/>
<path d="M69.688 31.9809H44.5139C45.4503 36.1226 48.9797 38.6436 54.0217 38.6436C55.7504 38.6436 57.227 38.3915 58.5596 37.8873C61.2967 36.8429 64.3939 37.6352 66.3747 39.76L67.4911 40.9845C64.3939 44.5139 59.748 46.3507 53.7696 46.3507C42.281 46.3507 34.79 39.1118 34.79 29.2078C34.79 19.2678 42.3891 12.0649 52.5451 12.0649C62.3051 12.0649 69.8681 18.6196 69.8681 29.3158C69.8681 30.1442 69.76 31.1886 69.688 31.9809ZM44.4059 26.3627H60.7925C60.1082 22.149 56.9749 19.4479 52.6172 19.4479C48.2234 19.4119 45.0541 22.0769 44.4059 26.3627Z" fill="#111111"/>
<path d="M108.151 29.2797C108.151 39.7239 100.913 46.4226 91.5848 46.4226C87.119 46.4226 83.5536 45.018 81.1406 42.1009C81.1406 44.2257 79.4119 45.9184 77.3231 45.9184H71.9209V0H74.3339C78.3315 0 81.5728 3.2413 81.5728 7.2389V16.1345C84.0578 13.3974 87.4431 12.1008 91.5848 12.1008C100.913 12.1369 108.151 18.7995 108.151 29.2797ZM98.3915 29.2797C98.3915 23.5174 94.754 20.06 89.9281 20.06C85.1022 20.06 81.4647 23.5174 81.4647 29.2797C81.4647 35.042 85.1022 38.4994 89.9281 38.4994C94.718 38.4634 98.3915 35.006 98.3915 29.2797Z" fill="#111111"/>
<path d="M164.334 43.3612L159.22 36.1944L153.854 43.4693C152.485 45.306 150.324 46.4225 148.019 46.4225H141.141L153.926 29.6758L141.573 13.1812H148.704C151.009 13.1812 153.205 14.2976 154.574 16.1703L159.472 22.905L164.55 16.0983C165.919 14.2616 168.079 13.1812 170.348 13.1812H176.975L164.622 29.4597L177.479 46.4585H170.24C167.899 46.3864 165.702 45.27 164.334 43.3612Z" fill="#111111"/>
<path d="M98.2115 56.109H96.7349V55.7129H100.156V56.109H98.6796V59.9266H98.2115V56.109Z" fill="#111111"/>
<path d="M106.747 59.5321V59.9283H103.758V55.7146H106.639V56.1107H104.19V57.6234H106.351V58.0195H104.19V59.5681H106.747V59.5321Z" fill="#111111"/>
<path d="M110.168 57.8394C110.168 56.615 111.105 55.7146 112.365 55.7146C112.977 55.7146 113.518 55.9307 113.914 56.3268L113.626 56.615C113.265 56.2548 112.869 56.1107 112.365 56.1107C111.357 56.1107 110.6 56.8671 110.6 57.8394C110.6 58.8479 111.357 59.5681 112.365 59.5681C112.833 59.5681 113.265 59.4241 113.626 59.0639L113.914 59.352C113.554 59.7482 112.977 59.9643 112.365 59.9643C111.141 59.9643 110.168 59.0639 110.168 57.8394Z" fill="#111111"/>
<path d="M121.261 55.7146V59.9283H120.829V57.9835H118.2V59.9283H117.767V55.7146H118.2V57.5873H120.829V55.7146H121.261Z" fill="#111111"/>
<path d="M129.004 55.7146V59.9283H128.644L125.942 56.5069V59.9283H125.51V55.7146H125.87L128.571 59.136V55.7146H129.004Z" fill="#111111"/>
<path d="M132.929 57.8394C132.929 56.615 133.866 55.7146 135.126 55.7146C136.387 55.7146 137.323 56.615 137.323 57.8394C137.323 59.0639 136.387 59.9643 135.126 59.9643C133.866 59.9643 132.929 59.0639 132.929 57.8394ZM136.891 57.8394C136.891 56.831 136.134 56.1107 135.126 56.1107C134.118 56.1107 133.361 56.8671 133.361 57.8394C133.361 58.8118 134.118 59.5681 135.126 59.5681C136.134 59.5681 136.891 58.8118 136.891 57.8394Z" fill="#111111"/>
<path d="M141.285 55.7146H141.717V59.5321H144.058V59.9283H141.249V55.7146H141.285Z" fill="#111111"/>
<path d="M147.155 57.8394C147.155 56.615 148.091 55.7146 149.352 55.7146C150.612 55.7146 151.549 56.615 151.549 57.8394C151.549 59.0639 150.612 59.9643 149.352 59.9643C148.127 59.9643 147.155 59.0639 147.155 57.8394ZM151.153 57.8394C151.153 56.831 150.396 56.1107 149.388 56.1107C148.38 56.1107 147.623 56.8671 147.623 57.8394C147.623 58.8118 148.38 59.5681 149.388 59.5681C150.396 59.5681 151.153 58.8118 151.153 57.8394Z" fill="#111111"/>
<path d="M158.536 57.8391H158.968V59.4597C158.572 59.8199 157.995 60 157.419 60C156.123 60 155.186 59.0996 155.186 57.8751C155.186 56.6506 156.123 55.7502 157.419 55.7502C158.067 55.7502 158.608 55.9663 158.968 56.3625L158.68 56.6506C158.32 56.2905 157.887 56.1464 157.419 56.1464C156.375 56.1464 155.618 56.9027 155.618 57.8751C155.618 58.8835 156.375 59.6038 157.419 59.6038C157.815 59.6038 158.211 59.4958 158.536 59.2797V57.8391Z" fill="#111111"/>
<path d="M163.073 55.7146H163.506V59.9283H163.073V55.7146Z" fill="#111111"/>
<path d="M170.745 59.5321V59.9283H167.755V55.7146H170.637V56.1107H168.188V57.6234H170.348V58.0195H168.188V59.5681H170.745V59.5321Z" fill="#111111"/>
<path d="M174.31 59.4238L174.49 59.0637C174.778 59.3518 175.318 59.5679 175.895 59.5679C176.687 59.5679 177.011 59.2438 177.011 58.8116C177.011 57.6591 174.418 58.3794 174.418 56.7948C174.418 56.1826 174.886 55.6423 175.967 55.6423C176.435 55.6423 176.939 55.7864 177.263 56.0025L177.119 56.3626C176.759 56.1105 176.327 56.0025 175.967 56.0025C175.21 56.0025 174.85 56.3626 174.85 56.7588C174.85 57.9112 177.443 57.227 177.443 58.7396C177.443 59.3518 176.939 59.892 175.859 59.892C175.246 59.9641 174.634 59.748 174.31 59.4238Z" fill="#111111"/>
</svg>
