<svg width="107" height="37" viewBox="0 0 107 37" fill="none" xmlns="http://www.w3.org/2000/svg">
<path d="M74.487 6.87012C74.4003 7.80202 74.1185 8.64723 73.7501 9.4491C73.1 10.9228 72.2331 12.2448 71.2578 13.5018C69.5674 15.669 69.5674 18.8765 71.2362 21.0653C73.4034 23.926 77.2827 24.4895 80.1867 22.344C82.9174 20.3285 83.5242 16.2541 81.4654 13.5668C80.3168 12.0497 79.3632 10.446 78.7564 8.64723C78.5613 8.08375 78.453 7.49861 78.2796 6.91346C81.9205 7.41192 86.4066 10.7928 86.9051 16.3625C87.4252 22.1923 83.1558 27.3069 77.3477 27.8487C71.5396 28.4122 66.3816 24.1644 65.7965 18.378C65.1896 12.5049 69.394 7.71533 74.487 6.87012Z" fill="#8BC34A"/>
<path d="M78.8647 19.8083C77.5644 21.1086 75.4839 21.217 74.0752 20.0467C72.6665 18.8547 72.3414 16.7959 73.4034 15.3222C75.0938 12.9382 75.874 10.2726 76.0474 7.41187C76.1124 6.26325 76.004 5.11463 75.5056 4.03102C75.3755 3.74929 75.2021 3.46755 75.0288 3.20748C74.5086 2.49231 74.552 1.56041 75.1805 0.953587C75.809 0.346769 76.7409 0.303425 77.4344 0.845227C78.0845 1.36536 78.2579 2.38394 77.7594 3.07745C77.0659 4.03102 76.7409 5.11463 76.6975 6.26325C76.5675 9.29734 77.326 12.1147 78.8864 14.7154C79.0598 14.9971 79.2765 15.2572 79.4499 15.5389C80.2301 16.9476 79.9917 18.6597 78.8647 19.8083Z" fill="#8BC34A"/>
<path d="M16.1024 18.6813V23.5575C16.1024 25.9631 14.1519 27.9136 11.7463 27.9136H10.0775V18.6163L0 1.86377H3.94432C5.48304 1.86377 6.89172 2.66564 7.67192 3.96596L13.3717 13.4367L19.0714 3.96596C19.8516 2.66564 21.282 1.86377 22.799 1.86377H26.2449L16.1024 18.6813Z" fill="#111111"/>
<path d="M41.9355 19.2449H26.7868C27.3502 21.7372 29.4741 23.2542 32.5082 23.2542C33.5485 23.2542 34.437 23.1025 35.2389 22.7991C36.8859 22.1706 38.7498 22.6474 39.9417 23.9261L40.6135 24.6629C38.7497 26.7868 35.9541 27.8921 32.3565 27.8921C25.4431 27.8921 20.9353 23.536 20.9353 17.5762C20.9353 11.5947 25.5081 7.26025 31.6196 7.26025C37.4928 7.26025 42.0439 11.2046 42.0439 17.6412C42.0439 18.1396 41.9789 18.7681 41.9355 19.2449ZM26.7217 15.8641H36.5825C36.1708 13.3284 34.2853 11.703 31.663 11.703C29.019 11.6814 27.1118 13.2851 26.7217 15.8641Z" fill="#111111"/>
<path d="M65.0812 17.6194C65.0812 23.9043 60.7251 27.9353 55.112 27.9353C52.4247 27.9353 50.2791 27.0901 48.8271 25.3347C48.8271 26.6133 47.7868 27.6319 46.5299 27.6319H43.2791V0H44.7311C47.1367 0 49.0872 1.95049 49.0872 4.35609V9.70909C50.5825 8.06201 52.6197 7.28182 55.112 7.28182C60.7251 7.30349 65.0812 11.3128 65.0812 17.6194ZM59.208 17.6194C59.208 14.1519 57.0191 12.0713 54.1151 12.0713C51.211 12.0713 49.0222 14.1519 49.0222 17.6194C49.0222 21.0869 51.211 23.1674 54.1151 23.1674C56.9975 23.1458 59.208 21.0653 59.208 17.6194Z" fill="#111111"/>
<path d="M98.8897 26.0933L95.8122 21.7806L92.5831 26.1583C91.7596 27.2636 90.4592 27.9355 89.0722 27.9355H84.9329L92.6264 17.8579L85.1929 7.93213H89.484C90.871 7.93213 92.193 8.60396 93.0165 9.73091L95.9639 13.7836L99.0197 9.68756C99.8433 8.58229 101.144 7.93213 102.509 7.93213H106.497L99.0631 17.7279L106.8 27.9571H102.444C101.035 27.9138 99.7132 27.2419 98.8897 26.0933Z" fill="#111111"/>
<path d="M59.0997 33.7643H58.2112V33.5259H60.27V33.7643H59.3815V36.0615H59.0997V33.7643Z" fill="#111111"/>
<path d="M64.236 35.8241V36.0625H62.4373V33.5269H64.171V33.7652H62.6973V34.6755H63.9976V34.9139H62.6973V35.8458H64.236V35.8241Z" fill="#111111"/>
<path d="M66.2949 34.8055C66.2949 34.0687 66.8584 33.5269 67.6169 33.5269C67.9853 33.5269 68.3104 33.6569 68.5488 33.8953L68.3754 34.0687C68.1587 33.8519 67.9203 33.7652 67.6169 33.7652C67.0101 33.7652 66.555 34.2204 66.555 34.8055C66.555 35.4123 67.0101 35.8458 67.6169 35.8458C67.8987 35.8458 68.1587 35.7591 68.3754 35.5424L68.5488 35.7157C68.3321 35.9541 67.9853 36.0842 67.6169 36.0842C66.8801 36.0842 66.2949 35.5424 66.2949 34.8055Z" fill="#111111"/>
<path d="M72.9699 33.5269V36.0625H72.7098V34.8922H71.1277V36.0625H70.8677V33.5269H71.1277V34.6538H72.7098V33.5269H72.9699Z" fill="#111111"/>
<path d="M77.6293 33.5269V36.0625H77.4126L75.7872 34.0036V36.0625H75.5271V33.5269H75.7438L77.3692 35.5857V33.5269H77.6293Z" fill="#111111"/>
<path d="M79.9917 34.8055C79.9917 34.0687 80.5552 33.5269 81.3137 33.5269C82.0722 33.5269 82.6357 34.0687 82.6357 34.8055C82.6357 35.5424 82.0722 36.0842 81.3137 36.0842C80.5552 36.0842 79.9917 35.5424 79.9917 34.8055ZM82.3756 34.8055C82.3756 34.1987 81.9205 33.7652 81.3137 33.7652C80.7069 33.7652 80.2518 34.2204 80.2518 34.8055C80.2518 35.3907 80.7069 35.8458 81.3137 35.8458C81.9205 35.8458 82.3756 35.3907 82.3756 34.8055Z" fill="#111111"/>
<path d="M85.0195 33.5269H85.2795V35.8241H86.6882V36.0625H84.9978V33.5269H85.0195Z" fill="#111111"/>
<path d="M88.552 34.8055C88.552 34.0687 89.1155 33.5269 89.874 33.5269C90.6325 33.5269 91.196 34.0687 91.196 34.8055C91.196 35.5424 90.6325 36.0842 89.874 36.0842C89.1371 36.0842 88.552 35.5424 88.552 34.8055ZM90.9576 34.8055C90.9576 34.1987 90.5025 33.7652 89.8957 33.7652C89.2889 33.7652 88.8337 34.2204 88.8337 34.8055C88.8337 35.3907 89.2889 35.8458 89.8957 35.8458C90.5025 35.8458 90.9576 35.3907 90.9576 34.8055Z" fill="#111111"/>
<path d="M95.4005 34.8053H95.6606V35.7806C95.4222 35.9973 95.0754 36.1056 94.7287 36.1056C93.9485 36.1056 93.385 35.5638 93.385 34.827C93.385 34.0901 93.9485 33.5483 94.7287 33.5483C95.1188 33.5483 95.4439 33.6784 95.6606 33.9168L95.4872 34.0901C95.2705 33.8734 95.0104 33.7867 94.7287 33.7867C94.1002 33.7867 93.6451 34.2419 93.6451 34.827C93.6451 35.4338 94.1002 35.8673 94.7287 35.8673C94.9671 35.8673 95.2055 35.8022 95.4005 35.6722V34.8053Z" fill="#111111"/>
<path d="M98.1311 33.5269H98.3912V36.0625H98.1311V33.5269Z" fill="#111111"/>
<path d="M102.747 35.8241V36.0625H100.948V33.5269H102.682V33.7652H101.209V34.6755H102.509V34.9139H101.209V35.8458H102.747V35.8241Z" fill="#111111"/>
<path d="M104.893 35.759L105.001 35.5422C105.175 35.7156 105.5 35.8457 105.846 35.8457C106.323 35.8457 106.518 35.6506 106.518 35.3905C106.518 34.697 104.958 35.1305 104.958 34.1769C104.958 33.8085 105.24 33.4834 105.89 33.4834C106.171 33.4834 106.475 33.5701 106.67 33.7001L106.583 33.9168C106.367 33.7651 106.106 33.7001 105.89 33.7001C105.435 33.7001 105.218 33.9168 105.218 34.1552C105.218 34.8487 106.778 34.437 106.778 35.3472C106.778 35.7156 106.475 36.0407 105.825 36.0407C105.456 36.084 105.088 35.954 104.893 35.759Z" fill="#111111"/>
</svg>
